<svg width="48" height="42" viewBox="0 0 48 42" fill="none" xmlns="http://www.w3.org/2000/svg">
<path fill-rule="evenodd" clip-rule="evenodd" d="M11.2325 1.38875C11.7012 0.934877 12.337 0.679825 13 0.679688H45.5C45.9943 0.67979 46.4776 0.821774 46.8886 1.08769C47.2996 1.35361 47.62 1.73153 47.8091 2.17366C47.9983 2.61579 48.0478 3.10229 47.9514 3.57165C47.855 4.04102 47.617 4.47217 47.2675 4.81061L39.7675 12.0706C39.2987 12.5244 38.6629 12.7795 38 12.7796H5.49996C5.00558 12.7795 4.52233 12.6375 4.11131 12.3716C3.70028 12.1057 3.37994 11.7278 3.19076 11.2857C3.00159 10.8435 2.95208 10.357 3.0485 9.88767C3.14492 9.41831 3.38293 8.98715 3.73246 8.64871L11.2325 1.38875ZM3.29496 16.4774C3.50858 16.0911 3.82652 15.7683 4.21486 15.5432C4.60319 15.3182 5.04735 15.1994 5.49996 15.1996H38C38.4114 15.1996 38.8166 15.2978 39.1794 15.4857C39.5423 15.6735 39.8516 15.9452 40.08 16.2765L45.08 23.5365C45.3312 23.9009 45.4754 24.3246 45.4974 24.7622C45.5193 25.1998 45.4182 25.6349 45.2046 26.0213C44.9911 26.4076 44.6733 26.7305 44.285 26.9556C43.8967 27.1808 43.4526 27.2996 43 27.2996H10.5C10.0885 27.2996 9.68334 27.2014 9.3205 27.0135C8.95766 26.8257 8.64833 26.554 8.41996 26.2227L3.41996 18.9627C3.1686 18.5982 3.0242 18.1745 3.00219 17.7368C2.98017 17.2991 3.08136 16.8638 3.29496 16.4774ZM8.73246 30.4286C9.20119 29.9748 9.83697 29.7197 10.5 29.7196H43C43.4943 29.7197 43.9776 29.8617 44.3886 30.1276C44.7996 30.3935 45.12 30.7714 45.3091 31.2135C45.4983 31.6557 45.5478 32.1422 45.4514 32.6115C45.355 33.0809 45.117 33.512 44.7675 33.8505L37.2675 41.1105C36.7987 41.5643 36.1629 41.8194 35.5 41.8195H2.99996C2.50558 41.8194 2.02233 41.6774 1.61131 41.4115C1.20028 41.1456 0.879936 40.7677 0.690761 40.3255C0.501586 39.8834 0.452078 39.3969 0.548497 38.9275C0.644916 38.4582 0.882932 38.027 1.23246 37.6886L8.73246 30.4286Z" fill="white"/>
</svg>
