<svg width="52" height="42" viewBox="0 0 52 42" fill="none" xmlns="http://www.w3.org/2000/svg">
<path d="M52 4.90327C50.086 5.74739 48.0229 6.3021 45.8853 6.56739C48.0727 5.28915 49.7629 3.26327 50.5583 0.827389C48.4952 2.03327 46.2084 2.87739 43.7973 3.35974C41.8337 1.28563 39.0746 0.0797424 35.9426 0.0797424C30.1013 0.0797424 25.3289 4.71033 25.3289 10.4262C25.3289 11.2462 25.4283 12.0421 25.6023 12.7897C16.7533 12.3556 8.87381 8.23151 3.62906 1.98504C2.70937 3.50445 2.18738 5.28915 2.18738 7.17033C2.18738 10.7639 4.05163 13.9474 6.93499 15.7562C5.17017 15.7562 3.52964 15.2739 2.08795 14.5503V14.6227C2.08795 19.6392 5.76673 23.8356 10.6386 24.7762C9.07447 25.1915 7.43236 25.2493 5.8413 24.945C6.51642 27.001 7.83862 28.8 9.62203 30.0892C11.4054 31.3783 13.5604 32.0928 15.7839 32.1321C12.0148 35.0273 7.34263 36.5922 2.53537 36.5697C1.69025 36.5697 0.845124 36.5215 0 36.425C4.72275 39.3674 10.3403 41.0797 16.3556 41.0797C35.9426 41.0797 46.7056 25.3068 46.7056 11.6321C46.7056 11.1739 46.7055 10.7397 46.6807 10.2815C48.7686 8.83445 50.5583 7.00151 52 4.90327Z" fill="white"/>
</svg>
