<svg width="78" height="102" viewBox="0 0 78 102" fill="none" xmlns="http://www.w3.org/2000/svg">
<path d="M68.25 34H63.375V24.2857C63.375 10.88 52.455 0 39 0C25.545 0 14.625 10.88 14.625 24.2857V34H9.75C4.3875 34 0 38.3714 0 43.7143V92.2857C0 97.6286 4.3875 102 9.75 102H68.25C73.6125 102 78 97.6286 78 92.2857V43.7143C78 38.3714 73.6125 34 68.25 34ZM39 77.7143C33.6375 77.7143 29.25 73.3429 29.25 68C29.25 62.6571 33.6375 58.2857 39 58.2857C44.3625 58.2857 48.75 62.6571 48.75 68C48.75 73.3429 44.3625 77.7143 39 77.7143ZM24.375 34V24.2857C24.375 16.2229 30.9075 9.71429 39 9.71429C47.0925 9.71429 53.625 16.2229 53.625 24.2857V34H24.375Z" fill="#CECECE"/>
</svg>
