<svg width="90" height="90" viewBox="0 0 90 90" fill="none" xmlns="http://www.w3.org/2000/svg">
<g filter="url(#filter0_d_188_6)">
<path d="M60.2475 33.7313C60.5162 33.4719 60.7306 33.1617 60.8782 32.8186C61.0258 32.4756 61.1035 32.1066 61.1069 31.7331C61.1104 31.3597 61.0394 30.9893 60.8981 30.6436C60.7569 30.2979 60.5482 29.9838 60.2842 29.7196C60.0203 29.4554 59.7064 29.2464 59.3608 29.1048C59.0152 28.9632 58.6449 28.8919 58.2715 28.895C57.898 28.898 57.5289 28.9754 57.1857 29.1227C56.8425 29.2699 56.5321 29.484 56.2725 29.7525L45 41.0213L33.7312 29.7525C33.4738 29.4762 33.1633 29.2546 32.8183 29.1008C32.4733 28.9471 32.1008 28.8645 31.7232 28.8578C31.3456 28.8511 30.9705 28.9206 30.6202 29.0621C30.27 29.2035 29.9519 29.4141 29.6848 29.6811C29.4178 29.9482 29.2072 30.2663 29.0658 30.6165C28.9243 30.9667 28.8549 31.3418 28.8615 31.7195C28.8682 32.0971 28.9508 32.4695 29.1046 32.8145C29.2583 33.1595 29.4799 33.47 29.7562 33.7275L41.0175 45L29.7487 56.2688C29.2519 56.8019 28.9815 57.5071 28.9943 58.2357C29.0072 58.9644 29.3024 59.6595 29.8177 60.1748C30.333 60.6901 31.0282 60.9853 31.7568 60.9982C32.4854 61.011 33.1906 60.7406 33.7237 60.2438L45 48.975L56.2687 60.2475C56.8019 60.7443 57.5071 61.0148 58.2357 61.0019C58.9643 60.9891 59.6595 60.6939 60.1748 60.1786C60.6901 59.6633 60.9853 58.9681 60.9981 58.2395C61.011 57.5108 60.7405 56.8057 60.2437 56.2725L48.9825 45L60.2475 33.7313Z" fill="white"/>
</g>
<defs>
<filter id="filter0_d_188_6" x="-51.1389" y="-51.1426" width="192.246" height="192.145" filterUnits="userSpaceOnUse" color-interpolation-filters="sRGB">
<feFlood flood-opacity="0" result="BackgroundImageFix"/>
<feColorMatrix in="SourceAlpha" type="matrix" values="0 0 0 0 0 0 0 0 0 0 0 0 0 0 0 0 0 0 127 0" result="hardAlpha"/>
<feOffset/>
<feGaussianBlur stdDeviation="40"/>
<feComposite in2="hardAlpha" operator="out"/>
<feColorMatrix type="matrix" values="0 0 0 0 0 0 0 0 0 0 0 0 0 0 0 0 0 0 0.25 0"/>
<feBlend mode="normal" in2="BackgroundImageFix" result="effect1_dropShadow_188_6"/>
<feBlend mode="normal" in="SourceGraphic" in2="effect1_dropShadow_188_6" result="shape"/>
</filter>
</defs>
</svg>
