<svg width="52" height="39" viewBox="0 0 52 39" fill="none" xmlns="http://www.w3.org/2000/svg">
<path d="M43.9986 3.23777C40.7051 1.76566 37.1393 0.69719 33.4249 0.0798516C33.3924 0.078853 33.36 0.0847131 33.33 0.0970202C33.3001 0.109327 33.2733 0.127782 33.2516 0.151083C32.8059 0.934628 32.2859 1.95561 31.9392 2.73916C27.9995 2.1693 23.9929 2.1693 20.0531 2.73916C19.7065 1.93187 19.1865 0.934628 18.716 0.151083C18.6912 0.103596 18.6169 0.0798516 18.5426 0.0798516C14.8282 0.69719 11.2872 1.76566 7.96901 3.23777C7.94424 3.23777 7.91948 3.26152 7.89472 3.28526C1.1593 12.949 -0.697899 22.3515 0.218317 31.6591C0.218317 31.7066 0.24308 31.7541 0.292605 31.7778C4.74987 34.912 9.0338 36.8115 13.2682 38.0699C13.3425 38.0937 13.4168 38.0699 13.4415 38.0224C14.432 36.7165 15.3235 35.3394 16.0911 33.891C16.1407 33.796 16.0911 33.701 15.9921 33.6773C14.5806 33.1549 13.2434 32.5376 11.931 31.8253C11.832 31.7778 11.832 31.6353 11.9063 31.5641C12.1786 31.3742 12.451 31.1605 12.7234 30.9705C12.7729 30.923 12.8472 30.923 12.8968 30.9468C21.4151 34.6745 30.602 34.6745 39.0213 30.9468C39.0708 30.923 39.1451 30.923 39.1946 30.9705C39.467 31.1842 39.7394 31.3742 40.0118 31.5879C40.1108 31.6591 40.1108 31.8015 39.987 31.849C38.6994 32.5851 37.3374 33.1787 35.926 33.701C35.8269 33.7248 35.8022 33.8435 35.8269 33.9147C36.6193 35.3631 37.5108 36.7403 38.4765 38.0462C38.5508 38.0699 38.6251 38.0937 38.6994 38.0699C42.9585 36.8115 47.2425 34.912 51.6997 31.7778C51.7493 31.7541 51.774 31.7066 51.774 31.6591C52.8636 20.9031 49.9663 11.5718 44.0976 3.28526C44.0729 3.26152 44.0481 3.23777 43.9986 3.23777ZM17.3788 25.9843C14.8282 25.9843 12.6987 23.7287 12.6987 20.9506C12.6987 18.1726 14.7787 15.917 17.3788 15.917C20.0036 15.917 22.0837 18.1964 22.0589 20.9506C22.0589 23.7287 19.9789 25.9843 17.3788 25.9843ZM34.6383 25.9843C32.0878 25.9843 29.9582 23.7287 29.9582 20.9506C29.9582 18.1726 32.0382 15.917 34.6383 15.917C37.2631 15.917 39.3432 18.1964 39.3184 20.9506C39.3184 23.7287 37.2631 25.9843 34.6383 25.9843Z" fill="white"/>
</svg>
