<svg width="48" height="42" viewBox="0 0 48 42" fill="none" xmlns="http://www.w3.org/2000/svg">
<path fill-rule="evenodd" clip-rule="evenodd" d="M11.2325 1.38902C11.7012 0.935152 12.337 0.680099 13 0.679962H45.5C45.9944 0.680064 46.4776 0.822049 46.8886 1.08797C47.2997 1.35389 47.62 1.7318 47.8092 2.17393C47.9984 2.61606 48.0479 3.10256 47.9514 3.57193C47.855 4.04129 47.617 4.47244 47.2675 4.81088L39.7675 12.0709C39.2988 12.5247 38.663 12.7798 38 12.7799H5.49999C5.00561 12.7798 4.52236 12.6378 4.11134 12.3719C3.70031 12.106 3.37997 11.7281 3.19079 11.2859C3.00162 10.8438 2.95211 10.3573 3.04853 9.88795C3.14495 9.41858 3.38296 8.98743 3.73249 8.64899L11.2325 1.38902ZM3.29499 16.4777C3.50861 16.0914 3.82655 15.7686 4.21489 15.5435C4.60322 15.3185 5.04739 15.1997 5.49999 15.1999H38C38.4115 15.1998 38.8166 15.2981 39.1794 15.486C39.5423 15.6738 39.8516 15.9455 40.08 16.2768L45.08 23.5368C45.3312 23.9012 45.4755 24.3248 45.4974 24.7624C45.5194 25.2001 45.4182 25.6352 45.2047 26.0215C44.9911 26.4078 44.6733 26.7308 44.285 26.9559C43.8967 27.181 43.4526 27.2999 43 27.2998H10.5C10.0885 27.2999 9.68337 27.2016 9.32053 27.0138C8.95769 26.8259 8.64836 26.5543 8.41999 26.223L3.41999 18.963C3.16863 18.5985 3.02424 18.1748 3.00222 17.7371C2.9802 17.2993 3.08139 16.8641 3.29499 16.4777ZM8.73249 30.4289C9.20122 29.975 9.837 29.72 10.5 29.7198H43C43.4944 29.7199 43.9776 29.8619 44.3886 30.1278C44.7997 30.3938 45.12 30.7717 45.3092 31.2138C45.4984 31.6559 45.5479 32.1424 45.4514 32.6118C45.355 33.0812 45.117 33.5123 44.7675 33.8508L37.2675 41.1107C36.7988 41.5646 36.163 41.8196 35.5 41.8198H2.99999C2.50561 41.8197 2.02236 41.6777 1.61134 41.4118C1.20031 41.1459 0.879966 40.7679 0.690791 40.3258C0.501616 39.8837 0.452109 39.3972 0.548528 38.9278C0.644946 38.4585 0.882962 38.0273 1.23249 37.6889L8.73249 30.4289Z" fill="#656565"/>
</svg>
